HIERARCHY
ROOT Hips
{
  OFFSET -4.35178 90.3298 111.633
  CHANNELS 6 Xposition Yposition Zposition Zrotation Xrotation Yrotation
  JOINT LeftUpLeg
  {
    OFFSET 0.103456 1.85784 10.5485
    CHANNELS 6 Xposition Yposition Zposition Zrotation Xrotation Yrotation
    JOINT LeftLeg
    {
      OFFSET 43.5 -4.2e-05 0
      CHANNELS 6 Xposition Yposition Zposition Zrotation Xrotation Yrotation
      JOINT LeftFoot
      {
        OFFSET 42.3722 1.9e-05 0
        CHANNELS 6 Xposition Yposition Zposition Zrotation Xrotation Yrotation
        JOINT LeftToe
        {
          OFFSET 17.3 0 0
          CHANNELS 6 Xposition Yposition Zposition Zrotation Xrotation Yrotation
          End Site
          {
            OFFSET 0 0 0
          }
        }
      }
    }
  }
  JOINT RightUpLeg
  {
    OFFSET 0.103456 1.85782 -10.5485
    CHANNELS 6 Xposition Yposition Zposition Zrotation Xrotation Yrotation
    JOINT RightLeg
    {
      OFFSET 43.5 -2.7e-05 0
      CHANNELS 6 Xposition Yposition Zposition Zrotation Xrotation Yrotation
      JOINT RightFoot
      {
        OFFSET 42.3723 0 0
        CHANNELS 6 Xposition Yposition Zposition Zrotation Xrotation Yrotation
        JOINT RightToe
        {
          OFFSET 17.3 0 1.7e-05
          CHANNELS 6 Xposition Yposition Zposition Zrotation Xrotation Yrotation
          End Site
          {
            OFFSET 0 0 0
          }
        }
      }
    }
  }
  JOINT Spine
  {
    OFFSET 6.90197 -2.60373 0
    CHANNELS 6 Xposition Yposition Zposition Zrotation Xrotation Yrotation
    JOINT Spine1
    {
      OFFSET 12.5881 0 0
      CHANNELS 6 Xposition Yposition Zposition Zrotation Xrotation Yrotation
      JOINT Spine2
      {
        OFFSET 12.3432 -1.8e-05 0
        CHANNELS 6 Xposition Yposition Zposition Zrotation Xrotation Yrotation
        JOINT Neck
        {
          OFFSET 25.8329 2.3e-05 0
          CHANNELS 6 Xposition Yposition Zposition Zrotation Xrotation Yrotation
          JOINT Head
          {
            OFFSET 11.7666 0 0
            CHANNELS 6 Xposition Yposition Zposition Zrotation Xrotation Yrotation
            End Site
            {
              OFFSET 0 0 0
            }
          }
        }
        JOINT LeftShoulder
        {
          OFFSET 19.7459 -1.48035 6.0001
          CHANNELS 6 Xposition Yposition Zposition Zrotation Xrotation Yrotation
          JOINT LeftArm
          {
            OFFSET 11.2841 1.8e-05 -2e-05
            CHANNELS 6 Xposition Yposition Zposition Zrotation Xrotation Yrotation
            JOINT LeftForeArm
            {
              OFFSET 33 -1.3e-05 1.9e-05
              CHANNELS 6 Xposition Yposition Zposition Zrotation Xrotation Yrotation
              JOINT LeftHand
              {
                OFFSET 25.2 3.2e-05 1.1e-05
                CHANNELS 6 Xposition Yposition Zposition Zrotation Xrotation Yrotation
                End Site
                {
                  OFFSET 0 0 0
                }
              }
            }
          }
        }
        JOINT RightShoulder
        {
          OFFSET 19.7461 -1.48036 -6.00008
          CHANNELS 6 Xposition Yposition Zposition Zrotation Xrotation Yrotation
          JOINT RightArm
          {
            OFFSET 11.2841 0 0
            CHANNELS 6 Xposition Yposition Zposition Zrotation Xrotation Yrotation
            JOINT RightForeArm
            {
              OFFSET 33.0001 1.6e-05 0
              CHANNELS 6 Xposition Yposition Zposition Zrotation Xrotation Yrotation
              JOINT RightHand
              {
                OFFSET 25.1998 0.000123 0.000432
                CHANNELS 6 Xposition Yposition Zposition Zrotation Xrotation Yrotation
                End Site
                {
                  OFFSET 0 0 0
                }
              }
            }
          }
        }
      }
    }
  }
}
MOTION
Frames:	9
Frame Time:	0.0333333
-19.0149 91.5947 -0.549342 13.2791 83.9644 79.3609 0.103456 1.85784 10.5485 5.04271 17.0704 -177.79 43.5 -4.2e-05 1e-05 -17.6503 -9.28916 -2.8903 42.3722 1.9e-05 -2.22045e-16 76.5607 2.02996 0.145335 17.3 0 3e-06 21.4546 -1e-06 0.003093 0.103456 1.85782 -10.5485 11.6335 -2.47109 175.43 43.5 -2.7e-05 4e-06 -5.85624 12.4811 2.34563 42.3723 1.77636e-15 1e-05 82.6699 7.68387 -11.9191 17.3 -6e-06 1.7e-05 21.4546 -1.9e-05 -0.003116 6.90197 -2.60373 -3e-06 6.88195 -0.164353 0.045422 12.5881 1e-05 8e-06 3.75346 -0.297257 0.136834 12.3432 -1.8e-05 -5e-06 3.43887 -0.234073 0.164161 25.8329 2.3e-05 7e-06 5.58912 -0.770791 -4.89087 11.7666 -8e-06 -6e-06 -19.1447 -6.3333 10.3034 19.7459 -1.48035 6.0001 173.259 -9.48587 -103.772 11.2841 1.8e-05 -2e-05 5.2564 -27.8348 28.8185 33 -1.3e-05 1.9e-05 -17.9289 6.08512 -17.3486 25.2 3.2e-05 1.1e-05 -0.437121 28.2103 3.98781 19.7461 -1.48036 -6.00008 -179.935 -0.552248 82.7901 11.2841 0 -1e-06 9.30704 2.43693 -1.22347 33.0001 1.6e-05 -1e-06 -25.959 8.71576 19.3697 25.1998 0.000123 0.000432 18.4635 -12.0308 5.3722 
-19.031 91.5935 -0.567423 13.2818 83.9656 79.3582 0.103456 1.85784 10.5485 5.03319 17.0582 -177.764 43.5 -4.2e-05 1e-05 -17.6324 -9.29431 -2.88121 42.3722 1.9e-05 0 76.5995 2.05129 0.171485 17.3 2.22045e-16 3e-06 21.4546 -1e-06 0.003093 0.103456 1.85782 -10.5485 11.5981 -2.48057 175.472 43.5 -2.7e-05 4e-06 -5.89456 12.4747 2.34557 42.3723 4.44089e-16 1e-05 82.7252 7.66104 -11.8976 17.3 -6e-06 1.7e-05 21.4546 -1.9e-05 -0.003116 6.90197 -2.60373 -3e-06 6.90733 -0.164353 0.0322226 12.5881 1e-05 8e-06 3.80404 -0.282735 0.109577 12.3432 -1.8e-05 -5e-06 3.48932 -0.220504 0.13617 25.8329 2.3e-05 7e-06 5.51707 -0.655077 -4.92776 11.7666 -8e-06 -6e-06 -18.9975 -6.22248 10.388 19.7459 -1.48035 6.0001 173.384 -9.52375 -103.49 11.2841 1.8e-05 -2e-05 4.91131 -27.4626 28.7063 33 -1.3e-05 1.9e-05 -18.0927 6.35934 -17.2612 25.2 3.2e-05 1.1e-05 -0.692695 28.2923 4.07967 19.7461 -1.48036 -6.00008 -179.971 -0.496361 82.6873 11.2841 0 -1e-06 9.22923 2.50107 -1.49477 33.0001 1.6e-05 -1e-06 -25.8479 8.66133 19.3469 25.1998 0.000123 0.000432 18.5433 -12.0313 5.35077 
-19.1024 91.5891 -0.592801 13.015 83.9829 79.63 0.103456 1.85784 10.5485 5.00515 17.0192 -177.733 43.5 -4.2e-05 1e-05 -17.597 -9.27167 -2.87845 42.3722 1.9e-05 -2.22045e-16 76.5432 1.94339 0.149756 17.3 2.22045e-16 3e-06 21.4546 -1e-06 0.003093 0.103456 1.85782 -10.5485 11.5835 -2.49824 175.509 43.5 -2.7e-05 4e-06 -5.88481 12.491 2.34572 42.3723 1.33227e-15 1e-05 82.7679 7.63765 -11.8918 17.3 -6e-06 1.7e-05 21.4546 -1.9e-05 -0.003116 6.90197 -2.60373 -3e-06 6.92319 -0.164353 0.0221329 12.5881 1e-05 8e-06 3.83564 -0.274138 0.0888762 12.3432 -1.8e-05 -5e-06 3.52088 -0.212719 0.115023 25.8329 2.3e-05 7e-06 5.50048 -0.572846 -4.95629 11.7666 -8e-06 -6e-06 -18.7539 -6.14797 10.4645 19.7459 -1.48035 6.0001 173.37 -9.50264 -103.415 11.2841 1.8e-05 -2e-05 4.92076 -27.5198 28.9232 33 -1.3e-05 1.9e-05 -17.9819 6.39194 -17.2401 25.2 3.2e-05 1.1e-05 -0.790451 28.2192 4.17403 19.7461 -1.48036 -6.00008 -179.955 -0.46685 82.6142 11.2841 3.55271e-15 -1e-06 9.19114 2.50319 -1.74678 33.0001 1.6e-05 -1e-06 -25.5952 8.61602 19.2457 25.1998 0.000123 0.000432 18.4842 -12.0322 5.23738 
-19.1773 91.5853 -0.616465 12.4305 83.9983 80.2289 0.103456 1.85784 10.5485 4.96103 17.0047 -177.693 43.5 -4.2e-05 1e-05 -17.6244 -9.24831 -2.88018 42.3722 1.9e-05 -4.44089e-16 76.5731 1.95169 0.123859 17.3 -4.44089e-16 3e-06 21.4546 -1e-06 0.003093 0.103456 1.85782 -10.5485 11.5703 -2.51724 175.551 43.5 -2.7e-05 4e-06 -5.91547 12.5201 2.34599 42.3723 -4.44089e-16 1e-05 82.8574 7.62475 -11.898 17.3 -6e-06 1.7e-05 21.4546 -1.9e-05 -0.003116 6.90197 -2.60373 -3e-06 6.93793 -0.161418 0.00449056 12.5881 1e-05 8e-06 3.86505 -0.270325 0.0533808 12.3432 -1.8e-05 -5e-06 3.55035 -0.210666 0.0794093 25.8329 2.3e-05 7e-06 5.50488 -0.512302 -4.96081 11.7666 -8e-06 -6e-06 -18.4735 -6.12924 10.5647 19.7459 -1.48035 6.0001 173.333 -9.45575 -103.41 11.2841 1.8e-05 -2e-05 4.76044 -27.5965 28.9401 33 -1.3e-05 1.9e-05 -17.5791 6.43787 -17.2324 25.2 3.2e-05 1.1e-05 -0.692529 28.1569 4.33447 19.7461 -1.48036 -6.00008 -179.897 -0.488064 82.5944 11.2841 -3.55271e-15 -1e-06 9.19604 2.58245 -2.04874 33.0001 1.6e-05 -1e-06 -25.2015 8.53909 19.159 25.1998 0.000123 0.000432 18.5627 -12.0738 5.12414 
-19.2565 91.5831 -0.633571 11.8146 84.0112 80.8669 0.103456 1.85784 10.5485 4.92809 16.97 -177.661 43.5 -4.2e-05 1e-05 -17.63 -9.21811 -2.87078 42.3722 1.9e-05 -4.44089e-16 76.5579 1.92541 0.10548 17.3 -1.55431e-15 3e-06 21.4546 -1e-06 0.003093 0.103456 1.85782 -10.5485 11.5256 -2.51937 175.587 43.5 -2.7e-05 4e-06 -6.02645 12.5526 2.34628 42.3723 -1.77636e-15 1e-05 82.9848 7.66236 -11.8959 17.3 -6e-06 1.7e-05 21.4546 -1.9e-05 -0.003116 6.90197 -2.60373 -3e-06 6.95788 -0.166603 -0.0116215 12.5881 1e-05 8e-06 3.90513 -0.282377 0.0220416 12.3432 -1.8e-05 -5e-06 3.59074 -0.224023 0.0489508 25.8329 2.3e-05 7e-06 5.48318 -0.508067 -4.96332 11.7666 -8e-06 -6e-06 -18.3516 -6.14789 10.6014 19.7459 -1.48035 6.0001 173.361 -9.42503 -103.361 11.2841 1.8e-05 -2e-05 4.42156 -27.455 28.7109 33 -1.3e-05 1.9e-05 -17.1925 6.53536 -17.2204 25.2 3.2e-05 1.1e-05 -0.544983 28.1893 4.4375 19.7461 -1.48036 -6.00008 -179.885 -0.540174 82.6077 11.2841 0 -1e-06 9.21911 2.75177 -2.30023 33.0001 1.6e-05 -1e-06 -24.8242 8.5391 19.1033 25.1998 0.000123 0.000432 18.6894 -12.0837 5.04184 
-19.3417 91.5839 -0.650014 11.1421 84.024 81.5688 0.103456 1.85784 10.5485 4.89826 16.9603 -177.628 43.5 -4.2e-05 1e-05 -17.627 -9.18892 -2.85205 42.3722 1.9e-05 0 76.5421 1.94953 0.0990634 17.3 1.11022e-15 3e-06 21.4546 -1e-06 0.003093 0.103456 1.85782 -10.5485 11.4217 -2.51914 175.622 43.5 -2.7e-05 4e-06 -6.27733 12.5843 2.34647 42.3723 1.77636e-15 1e-05 83.142 7.71551 -11.8882 17.3 -6e-06 1.7e-05 21.4546 -1.9e-05 -0.003116 6.90197 -2.60373 -3e-06 6.98359 -0.174284 -0.0278737 12.5881 1e-05 8e-06 3.9568 -0.299317 -0.00920949 12.3432 -1.8e-05 -5e-06 3.64279 -0.242087 0.0189082 25.8329 2.3e-05 7e-06 5.44408 -0.487075 -4.96411 11.7666 -8e-06 -6e-06 -18.3632 -6.13795 10.6008 19.7459 -1.48035 6.0001 173.391 -9.41105 -103.344 11.2841 1.8e-05 -2e-05 4.11127 -27.2943 28.4377 33 -1.3e-05 1.9e-05 -16.9928 6.55511 -17.1663 25.2 3.2e-05 1.1e-05 -0.383736 28.1663 4.58522 19.7461 -1.48036 -6.00008 -179.839 -0.579314 82.5687 11.2841 0 -1e-06 9.32414 2.78597 -2.38357 33.0001 1.6e-05 -1e-06 -24.6928 8.50572 19.0939 25.1998 0.000123 0.000432 18.7069 -12.1047 4.98784 
-19.4389 91.5825 -0.65965 10.2712 84.0401 82.4604 0.103456 1.85784 10.5485 4.85962 16.9479 -177.582 43.5 -4.2e-05 1e-05 -17.6132 -9.14689 -2.85532 42.3722 1.9e-05 1.11022e-15 76.5349 1.95358 0.0622482 17.3 0 3e-06 21.4546 -1e-06 0.003093 0.103456 1.85782 -10.5485 11.3413 -2.5185 175.689 43.5 -2.7e-05 4e-06 -6.43599 12.6342 2.33697 42.3723 0 1e-05 83.2043 7.65197 -11.9576 17.3 -6e-06 1.7e-05 21.4546 -1.9e-05 -0.003116 6.90197 -2.60373 -3e-06 6.99885 -0.178438 -0.0316215 12.5881 1e-05 8e-06 3.98741 -0.30775 -0.0160141 12.3432 -1.8e-05 -5e-06 3.67354 -0.250467 0.0126908 25.8329 2.3e-05 7e-06 5.4209 -0.489498 -4.96188 11.7666 -8e-06 -6e-06 -18.3152 -6.12392 10.5635 19.7459 -1.48035 6.0001 173.378 -9.4024 -103.386 11.2841 1.8e-05 -2e-05 3.86844 -27.3092 28.2328 33 -1.3e-05 1.9e-05 -16.8778 6.54328 -17.1482 25.2 3.2e-05 1.1e-05 -0.391578 28.0991 4.70803 19.7461 -1.48036 -6.00008 -179.762 -0.600574 82.5154 11.2841 0 -1e-06 9.47918 2.67077 -2.28656 33.0001 1.6e-05 -1e-06 -24.6816 8.53904 19.0754 25.1998 0.000123 0.000432 18.7365 -12.1057 4.99137 
-19.5471 91.5778 -0.665506 9.21215 84.0776 83.5331 0.103456 1.85784 10.5485 4.80014 16.9226 -177.517 43.5 -4.2e-05 1e-05 -17.6109 -9.10943 -2.84998 42.3722 1.9e-05 8.88178e-16 76.4995 1.98225 0.0425467 17.3 8.88178e-16 3e-06 21.4546 -1e-06 0.003093 0.103456 1.85782 -10.5485 11.3522 -2.54571 175.763 43.5 -2.7e-05 4e-06 -6.3959 12.6776 2.34105 42.3723 -1.77636e-15 1e-05 83.2027 7.63172 -12.0026 17.3 -6e-06 1.7e-05 21.4546 -1.9e-05 -0.003116 6.90197 -2.60373 -3e-06 6.99913 -0.180166 -0.035175 12.5881 1e-05 8e-06 3.98918 -0.311557 -0.0122935 12.3432 -1.8e-05 -5e-06 3.67535 -0.254009 0.0166493 25.8329 2.3e-05 7e-06 5.44057 -0.536396 -4.94653 11.7666 -8e-06 -6e-06 -18.1578 -6.11441 10.4665 19.7459 -1.48035 6.0001 173.371 -9.38481 -103.445 11.2841 1.8e-05 -2e-05 3.70816 -27.4247 28.0931 33 -1.3e-05 1.9e-05 -16.9354 6.57827 -17.1801 25.2 3.2e-05 1.1e-05 -0.469097 28.1527 4.63093 19.7461 -1.48036 -6.00008 -179.744 -0.628152 82.5452 11.2841 0 -1e-06 9.65596 2.70129 -2.18667 33.0001 1.6e-05 -1e-06 -24.6993 8.59307 19.1068 25.1998 0.000123 0.000432 18.7285 -12.0998 5.03469 
-19.6562 91.5735 -0.6702 8.55283 84.1329 84.2154 0.103456 1.85784 10.5485 4.70221 16.9052 -177.459 43.5 -4.2e-05 1e-05 -17.6259 -9.0891 -2.84255 42.3722 1.9e-05 -4.44089e-16 76.4454 1.97195 0.0313788 17.3 0 3e-06 21.4546 -1e-06 0.003093 0.103456 1.85782 -10.5485 11.3673 -2.52804 175.819 43.5 -2.7e-05 4e-06 -6.29484 12.7149 2.34862 42.3723 -8.88178e-16 1e-05 83.2203 7.63629 -12.0263 17.3 -6e-06 1.7e-05 21.4546 -1.9e-05 -0.003116 6.90197 -2.60373 -3e-06 6.99308 -0.181619 -0.0387476 12.5881 1e-05 8e-06 3.97238 -0.313941 -0.0106149 12.3432 -1.8e-05 -5e-06 3.65859 -0.256529 0.0184426 25.8329 2.3e-05 7e-06 5.45027 -0.559962 -4.95728 11.7666 -8e-06 -6e-06 -18.0037 -6.06777 10.3842 19.7459 -1.48035 6.0001 173.421 -9.3806 -103.436 11.2841 1.8e-05 -2e-05 3.52318 -27.3708 27.8205 33 -1.3e-05 1.9e-05 -17.339 6.53091 -17.14 25.2 3.2e-05 1.1e-05 -0.55177 28.2001 4.52312 19.7461 -1.48036 -6.00008 -179.767 -0.610944 82.5803 11.2841 0 -1e-06 9.76366 2.71685 -2.03302 33.0001 1.6e-05 -1e-06 -24.8679 8.55898 19.1582 25.1998 0.000123 0.000432 18.5693 -12.1115 5.05183 
